# xmcd CD database file
#
# Track frame offsets:
#	150
#	24690
#	51463
#	85253
#	116916
#	140721
#	169240
#	204786
#	233099
#	259387
#	286190
#
# Disc length: 4224 seconds
#
# Revision: 0
# Processed by: cddbd v1.5.2PL0 Copyright (c) Steve Scherf et al.
# Submitted via: CDex 1.70beta2
#
DISCID=a3107e0b
DTITLE=Allison Neale and Gary Kavanagh - Blue Concept
DYEAR=2006
DGENRE=Jazz
TTITLE0=Blue Concept
TTITLE1=End Of A Love Affair
TTITLE2=Fair Weather
TTITLE3=It's For You
TTITLE4=Geraldine
TTITLE5=Marshmallow
TTITLE6=Potters Luck
TTITLE7=Sans Souci
TTITLE8=A Night At Tony's
TTITLE9=Social Call
TTITLE10=UMMG
EXTD=YEAR: 2006
EXTT0=
EXTT1=
EXTT2=
EXTT3=
EXTT4=
EXTT5=
EXTT6=
EXTT7=
EXTT8=
EXTT9=
EXTT10=
PLAYORDER=
